<svg xmlns="http://www.w3.org/2000/svg" width="60" height="47.993" viewBox="0 0 60 47.993"><path d="M26.145,47.949l-5.718-1.659a1.127,1.127,0,0,1-.769-1.4L32.454.815a1.127,1.127,0,0,1,1.4-.769l5.718,1.659a1.127,1.127,0,0,1,.769,1.4L27.542,47.18a1.123,1.123,0,0,1-1.4.769ZM15.459,37.431l4.078-4.35a1.125,1.125,0,0,0-.075-1.612L10.968,24l8.493-7.471a1.117,1.117,0,0,0,.075-1.612l-4.078-4.35a1.126,1.126,0,0,0-1.594-.047L.357,23.172a1.117,1.117,0,0,0,0,1.64L13.865,37.477a1.118,1.118,0,0,0,1.594-.047Zm30.673.056L59.64,24.822a1.117,1.117,0,0,0,0-1.64L46.131,10.508a1.135,1.135,0,0,0-1.594.047L40.46,14.9a1.125,1.125,0,0,0,.075,1.612L49.028,24l-8.493,7.471a1.117,1.117,0,0,0-.075,1.612l4.078,4.35a1.126,1.126,0,0,0,1.594.056Z" transform="translate(0.002 -0.003)"/></svg>